<svg xmlns="http://www.w3.org/2000/svg" viewBox="0 0 64.83 64.83"><defs><style>.cls-1{fill:#fff;}</style></defs><g id="Layer_2" data-name="Layer 2"><g id="Layer_1-2" data-name="Layer 1"><path class="cls-1" d="M40,16.94H24.83A7.85,7.85,0,0,0,17,24.78V40a7.85,7.85,0,0,0,7.84,7.84H40A7.85,7.85,0,0,0,47.84,40V24.78A7.85,7.85,0,0,0,40,16.94ZM32.57,41.73a9.36,9.36,0,1,1,9.36-9.36A9.37,9.37,0,0,1,32.57,41.73Zm9.91-17.12a2.23,2.23,0,1,1,2.23-2.23A2.23,2.23,0,0,1,42.48,24.61Z"/><path class="cls-1" d="M32.57,26.38a6,6,0,1,0,6,6A6,6,0,0,0,32.57,26.38Z"/><path class="cls-1" d="M32.42,0A32.42,32.42,0,1,0,64.83,32.42,32.41,32.41,0,0,0,32.42,0Zm19,40A11.44,11.44,0,0,1,40,51.38H24.83A11.44,11.44,0,0,1,13.41,40V24.78A11.43,11.43,0,0,1,24.83,13.37H40A11.43,11.43,0,0,1,51.42,24.78Z"/></g></g></svg>