<svg xmlns="http://www.w3.org/2000/svg" viewBox="0 0 64.83 64.83"><defs><style>.cls-1{fill:#fff;}</style></defs><g id="Layer_2" data-name="Layer 2"><g id="Layer_1-2" data-name="Layer 1"><path class="cls-1" d="M28.28,33.44a5.74,5.74,0,0,0-.82-.19A5.74,5.74,0,0,1,28.28,33.44Z"/><polygon class="cls-1" points="28.3 33.45 28.3 33.45 28.3 28.13 28.3 28.13 28.3 33.45"/><polygon class="cls-1" points="40.93 26.84 40.93 26.84 40.93 26.84 40.93 26.84"/><path class="cls-1" d="M32.42,0A32.42,32.42,0,1,0,64.83,32.42,32.41,32.41,0,0,0,32.42,0ZM50.25,29.82a16,16,0,0,1-9.32-3V40.48a12.36,12.36,0,0,1-21.2,8.64h0A12.35,12.35,0,0,1,26.61,26.5a12.13,12.13,0,0,1,1.7.11v1.52a11.6,11.6,0,0,1,2,.11v6.83a5.81,5.81,0,0,0-1.71-.26A5.66,5.66,0,0,0,24,43.89a5.66,5.66,0,0,1,2.55-10.71h0A5.66,5.66,0,0,0,24,43.89a5.73,5.73,0,0,0,2.55.6,5.65,5.65,0,0,0,5.65-5.64V12.15H39V13c0,.26.06.51.11.77h1.85v.86a9.25,9.25,0,0,0,2.42,5.45,8.12,8.12,0,0,0,1,1,7.48,7.48,0,0,1-1-1,9.31,9.31,0,0,0,4.95,1.42v1.42a9.16,9.16,0,0,0,2,.2Z"/><path class="cls-1" d="M45.59,21.89c-.17-.1-.32-.22-.48-.33C45.27,21.67,45.42,21.79,45.59,21.89Z"/><path class="cls-1" d="M46.9,22.51a4.53,4.53,0,0,1-.59-.28A6.36,6.36,0,0,0,46.9,22.51Z"/></g></g></svg>