<svg xmlns="http://www.w3.org/2000/svg" viewBox="0 0 64.83 64.83"><defs><style>.cls-1{fill:#fff;}</style></defs><g id="Layer_2" data-name="Layer 2"><g id="Layer_1-2" data-name="Layer 1"><path class="cls-1" d="M37.69,32.19l-8.54-4.65c-.35-.2-1.55.06-1.55.46v9.06c0,.4,1.19.66,1.54.47l8.93-4.42C38.43,32.91,38.05,32.4,37.69,32.19Z"/><path class="cls-1" d="M32.42,0A32.42,32.42,0,1,0,64.83,32.42,32.41,32.41,0,0,0,32.42,0ZM49.77,37.05A7.78,7.78,0,0,1,42,44.83H22.08a7.78,7.78,0,0,1-7.78-7.78V27.79A7.78,7.78,0,0,1,22.08,20H42a7.78,7.78,0,0,1,7.78,7.79Z"/></g></g></svg>