<svg xmlns="http://www.w3.org/2000/svg" viewBox="0 0 64.83 64.83"><defs><style>.cls-1{fill:#fff;}</style></defs><g id="Layer_2" data-name="Layer 2"><g id="Layer_1-2" data-name="Layer 1"><path class="cls-1" d="M32.42,0A32.42,32.42,0,1,0,64.83,32.42,32.41,32.41,0,0,0,32.42,0ZM53,43.48c-.42,1-2.2,1.7-5.45,2.21a3.89,3.89,0,0,0-.29,1c-.07.32-.14.63-.24,1a.92.92,0,0,1-.95.72h-.05a5.08,5.08,0,0,1-.94-.12,11.09,11.09,0,0,0-2.2-.23,9.44,9.44,0,0,0-1.58.13,7.57,7.57,0,0,0-3,1.54,9.39,9.39,0,0,1-5.69,2.22h-.51a9.28,9.28,0,0,1-5.68-2.23,7.68,7.68,0,0,0-3-1.53A9.62,9.62,0,0,0,21.93,48a10.62,10.62,0,0,0-2.21.25,5.24,5.24,0,0,1-.94.13,1,1,0,0,1-1-.73c-.1-.34-.17-.66-.24-1a4,4,0,0,0-.29-1c-3.24-.5-5-1.23-5.45-2.22a1.24,1.24,0,0,1-.09-.38.87.87,0,0,1,.72-.9c5.63-.92,8.16-6.7,8.27-6.95a.08.08,0,0,1,0,0,1.88,1.88,0,0,0,.2-1.52c-.33-.76-1.53-1.14-2.32-1.39-.22-.07-.43-.14-.6-.21-1.92-.75-2.18-1.62-2.07-2.22a2.06,2.06,0,0,1,2-1.39,1.53,1.53,0,0,1,.66.14,4.59,4.59,0,0,0,1.9.51,1.62,1.62,0,0,0,.81-.18l-.06-1c-.18-2.81-.4-6.31.52-8.37A11,11,0,0,1,32,13h.82a11,11,0,0,1,10.25,6.6c.91,2.06.69,5.56.52,8.38v.12c0,.3,0,.6,0,.88a1.47,1.47,0,0,0,.69.17,4.83,4.83,0,0,0,1.79-.5,1.91,1.91,0,0,1,.79-.16,2.39,2.39,0,0,1,.86.16h0a1.71,1.71,0,0,1,1.26,1.45c0,.79-.69,1.47-2.1,2-.17.07-.38.14-.6.21-.79.25-2,.63-2.31,1.39a1.84,1.84,0,0,0,.2,1.52l0,0c.1.25,2.63,6,8.26,6.95a.85.85,0,0,1,.72.9A1.38,1.38,0,0,1,53,43.48Z"/></g></g></svg>