<svg xmlns="http://www.w3.org/2000/svg" viewBox="0 0 134.58 44.02"><defs><style>.cls-1{fill:#fff;}</style></defs><g id="Layer_2" data-name="Layer 2"><g id="Layer_1-2" data-name="Layer 1"><rect width="134.58" height="44.02" rx="5.95"/><path class="cls-1" d="M35.09,29.1a21.55,21.55,0,0,1-2,3.68c-1.28,1.95-3.08,4.37-5.32,4.39-2,0-2.49-1.29-5.19-1.28s-3.26,1.31-5.24,1.29c-2.24,0-4-2.21-5.23-4.16-3.58-5.45-4-11.84-1.74-15.24A7.91,7.91,0,0,1,16.77,14c2.37,0,3.86,1.3,5.81,1.3s3.06-1.31,5.8-1.31A7.75,7.75,0,0,1,34.21,17,6.67,6.67,0,0,0,35.09,29.1Z"/><path class="cls-1" d="M26.3,11.77a6.65,6.65,0,0,0,1.48-4.93,7.21,7.21,0,0,0-4.64,2.5,6.13,6.13,0,0,0-1.51,4.8A6,6,0,0,0,26.3,11.77Z"/><path class="cls-1" d="M46,17.69l-5.13,15.1h2.35l1.53-4.64h5l1.58,4.64H53.7l-5.15-15.1Zm1.21,2.49c.18.67.36,1.37.6,2.12l1.38,4H45.26l1.37-4C46.83,21.63,47,20.92,47.21,20.18Z"/><path class="cls-1" d="M60.33,21.61a4.28,4.28,0,0,0-3.63,1.74l-.09-1.5H54.52l0,.19c.06.93.08,2,.08,3.44V37.11h2.29V31.68A4,4,0,0,0,60,33a4.72,4.72,0,0,0,3.46-1.48A6.22,6.22,0,0,0,65,27.16a6.08,6.08,0,0,0-1.33-4A4.36,4.36,0,0,0,60.33,21.61Zm-.57,1.89c2,0,3,1.88,3,3.75,0,2.41-1.16,3.91-3,3.91A2.77,2.77,0,0,1,57,29a2.66,2.66,0,0,1-.08-.74V26.46A3.05,3.05,0,0,1,57,25.9l0-.19A2.89,2.89,0,0,1,59.76,23.5Z"/><path class="cls-1" d="M72.09,21.61a4.28,4.28,0,0,0-3.63,1.74l-.09-1.5H66.28V22c.07.93.09,2,.09,3.44V37.11h2.28V31.68A4,4,0,0,0,71.78,33a4.73,4.73,0,0,0,3.47-1.48,6.26,6.26,0,0,0,1.52-4.39,6.12,6.12,0,0,0-1.32-4A4.38,4.38,0,0,0,72.09,21.61Zm-.57,1.89c2,0,3,1.88,3,3.75,0,2.41-1.17,3.91-3,3.91A2.76,2.76,0,0,1,68.75,29a2.63,2.63,0,0,1-.09-.74V26.46a3,3,0,0,1,.08-.56l0-.19A2.89,2.89,0,0,1,71.52,23.5Z"/><path class="cls-1" d="M86.82,24.09C84.69,23.26,84,22.61,84,21.42c0-1,.8-2,2.59-2a5.16,5.16,0,0,1,2.68.67l.2.12.64-1.91L90,18.2a6.62,6.62,0,0,0-3.32-.75c-2.91,0-5,1.72-5,4.18,0,2,1.28,3.37,4,4.37,1.94.72,2.66,1.46,2.66,2.74,0,1.44-1.11,2.33-2.9,2.33a6.25,6.25,0,0,1-3.29-.93L82,30,81.38,32l.12.07a7.76,7.76,0,0,0,3.86,1c3.92,0,5.31-2.4,5.31-4.45S89.56,25.17,86.82,24.09Z"/><path class="cls-1" d="M94.78,19.25l-2.24.7v1.9H90.9v1.82h1.64v5.59a4.3,4.3,0,0,0,.79,2.9,2.93,2.93,0,0,0,2.21.87,5.38,5.38,0,0,0,1.77-.28l.12,0-.1-1.83-.22.07a3.46,3.46,0,0,1-1.07.12c-.88,0-1.26-.56-1.26-1.87V23.67h2.76V21.85H94.78Z"/><path class="cls-1" d="M103.19,21.61c-3.19,0-5.42,2.38-5.42,5.79S99.93,33,103,33h0c2.61,0,5.43-1.83,5.43-5.82a5.77,5.77,0,0,0-1.46-4A5.09,5.09,0,0,0,103.19,21.61Zm-.06,1.8c2.05,0,3,2,3,3.86,0,2.29-1.28,3.95-3,3.95h0c-1.73,0-3-1.63-3-3.88C100.07,25.38,101,23.41,103.13,23.41Z"/><path class="cls-1" d="M115.46,21.71l-.14,0a2.17,2.17,0,0,0-.57-.07,3.26,3.26,0,0,0-2.86,1.83l-.06-1.59h-2V22c.06.9.09,1.92.09,3.29l0,7.46h2.29V27a6.13,6.13,0,0,1,.06-.89,2.52,2.52,0,0,1,2.4-2.3,5.7,5.7,0,0,1,.62,0l.24,0Z"/><path class="cls-1" d="M120.59,21.58c-3,0-5.16,2.43-5.16,5.91S117.54,33,120.81,33a8.73,8.73,0,0,0,3.62-.69l.13-.06-.43-1.7-.2.07a6.88,6.88,0,0,1-2.86.52,3.18,3.18,0,0,1-3.42-3.32l7.37,0,0-.15a4.71,4.71,0,0,0,.07-.95C125.12,24.37,123.94,21.58,120.59,21.58Zm-.15,1.74a2.28,2.28,0,0,1,1.68.64,3.25,3.25,0,0,1,.78,2.13h-5.2A2.91,2.91,0,0,1,120.44,23.32Z"/><path class="cls-1" d="M40.87,7.39a15.81,15.81,0,0,1,2.19-.15,4.83,4.83,0,0,1,3.21.88,3.12,3.12,0,0,1,1.14,2.57,3.63,3.63,0,0,1-1.15,2.78,5.28,5.28,0,0,1-3.52,1,16.58,16.58,0,0,1-1.87-.09Zm1,6.32a7.73,7.73,0,0,0,1,0c2.19,0,3.38-1.1,3.38-3,0-1.7-1-2.75-3.21-2.75a6.8,6.8,0,0,0-1.2.09Z"/><path class="cls-1" d="M51.08,14.55a2.58,2.58,0,0,1-2.73-2.64,2.64,2.64,0,0,1,2.82-2.72,2.56,2.56,0,0,1,2.75,2.62,2.66,2.66,0,0,1-2.83,2.74Zm0-.7a1.82,1.82,0,0,0,1.73-2,1.74,1.74,0,1,0-3.45,0,1.8,1.8,0,0,0,1.71,2Z"/><path class="cls-1" d="M55.55,9.3l.77,2.6c.15.57.31,1.11.41,1.64h0c.13-.52.32-1.07.5-1.63L58.2,9.3h.88L60,11.87a16,16,0,0,1,.5,1.67h0a12.9,12.9,0,0,1,.44-1.66l.81-2.58h1l-1.83,5.13H60L59.12,12a16.39,16.39,0,0,1-.5-1.69h0a14.07,14.07,0,0,1-.52,1.7l-.91,2.44h-.95L54.49,9.3Z"/><path class="cls-1" d="M63.81,10.69c0-.54,0-1-.05-1.39h.92l.06.84h0a2.17,2.17,0,0,1,1.89-1,1.94,1.94,0,0,1,2,2.18v3.06h-1V11.48c0-.83-.34-1.53-1.31-1.53a1.46,1.46,0,0,0-1.39,1,1.23,1.23,0,0,0-.07.44v3.09h-1Z"/><path class="cls-1" d="M70.34,6.91h1v7.52h-1Z"/><path class="cls-1" d="M75.42,14.55a2.58,2.58,0,0,1-2.73-2.64,2.64,2.64,0,0,1,2.82-2.72,2.56,2.56,0,0,1,2.75,2.62,2.66,2.66,0,0,1-2.83,2.74Zm0-.7a1.83,1.83,0,0,0,1.74-2,1.74,1.74,0,1,0-3.45,0,1.79,1.79,0,0,0,1.7,2Z"/><path class="cls-1" d="M83.58,13.2a7.62,7.62,0,0,0,.08,1.23h-.93l-.09-.64h0a2.18,2.18,0,0,1-1.74.76,1.55,1.55,0,0,1-1.74-1.47c0-1.24,1.22-1.92,3.42-1.91v-.11c0-.42-.13-1.19-1.29-1.18a2.93,2.93,0,0,0-1.5.38l-.23-.63a4,4,0,0,1,1.88-.44,1.91,1.91,0,0,1,2.18,2.1Zm-1-1.39c-1.13,0-2.42.16-2.42,1.16a.87.87,0,0,0,1,.89,1.43,1.43,0,0,0,1.4-.86.76.76,0,0,0,0-.3Z"/><path class="cls-1" d="M90.16,6.91v6.2c0,.45,0,1,0,1.32h-.93l0-.89h0a2.14,2.14,0,0,1-1.93,1,2.45,2.45,0,0,1-2.45-2.61,2.56,2.56,0,0,1,2.55-2.75A2,2,0,0,1,89.1,10h0V6.91Zm-1,4.48a1.83,1.83,0,0,0,0-.4,1.5,1.5,0,0,0-1.5-1.07,1.75,1.75,0,0,0-1.7,2,1.7,1.7,0,0,0,1.68,1.91,1.55,1.55,0,0,0,1.52-1.12,1.62,1.62,0,0,0,0-.4Z"/><path class="cls-1" d="M96.7,14.55A2.58,2.58,0,0,1,94,11.91a2.64,2.64,0,0,1,2.82-2.72,2.56,2.56,0,0,1,2.75,2.62,2.66,2.66,0,0,1-2.83,2.74Zm0-.7a1.82,1.82,0,0,0,1.73-2,1.74,1.74,0,1,0-3.45,0,1.8,1.8,0,0,0,1.71,2Z"/><path class="cls-1" d="M100.84,10.69c0-.54,0-1,0-1.39h.91l.06.84h0a2.14,2.14,0,0,1,1.88-1,1.94,1.94,0,0,1,2,2.18v3.06h-1V11.48c0-.83-.34-1.53-1.32-1.53a1.48,1.48,0,0,0-1.39,1,1.23,1.23,0,0,0-.07.44v3.09h-1Z"/><path class="cls-1" d="M111.12,8.07V9.3h1.49V10h-1.49v2.77c0,.63.2,1,.78,1a2.18,2.18,0,0,0,.6-.07l0,.71a2.91,2.91,0,0,1-.92.13,1.6,1.6,0,0,1-1.12-.39,1.9,1.9,0,0,1-.4-1.35V10h-.88V9.3h.88V8.36Z"/><path class="cls-1" d="M113.77,6.91h1v3.2h0a1.83,1.83,0,0,1,.74-.66,2.22,2.22,0,0,1,1.06-.26,1.94,1.94,0,0,1,2,2.19v3h-1V11.49c0-.84-.34-1.53-1.32-1.53a1.49,1.49,0,0,0-1.39.93,1,1,0,0,0-.07.45v3.09h-1Z"/><path class="cls-1" d="M120.9,12a1.73,1.73,0,0,0,1.94,1.78,4.28,4.28,0,0,0,1.58-.26l.19.66a5.07,5.07,0,0,1-1.91.33A2.53,2.53,0,0,1,119.9,12a2.6,2.6,0,0,1,2.68-2.77,2.24,2.24,0,0,1,2.34,2.41,2.64,2.64,0,0,1,0,.45Zm3-.67a1.38,1.38,0,0,0-1.42-1.52,1.61,1.61,0,0,0-1.59,1.52Z"/></g></g></svg>