<svg xmlns="http://www.w3.org/2000/svg" xmlns:xlink="http://www.w3.org/1999/xlink" viewBox="0 0 131.94 44.02"><defs><style>.cls-1{fill:none;}.cls-2{fill:#1d1d1b;}.cls-3{clip-path:url(#clip-path);}.cls-4{fill:url(#linear-gradient);}.cls-5{fill:url(#linear-gradient-2);}.cls-6{fill:url(#linear-gradient-3);}.cls-7{fill:url(#linear-gradient-4);}.cls-8{fill:#f9f9f9;}.cls-9{fill:#fbfbfb;}</style><clipPath id="clip-path"><path class="cls-1" d="M28.59,19l-5.95-3.44L11.17,8.94c-.64-.37-1.27-.15-1.27.62v27c0,.58.45.83,1,.51l11.74-6.78,5.95-3.43,5.72-3.3c.67-.39.61-.92,0-1.23S28.59,19,28.59,19Z"/></clipPath><linearGradient id="linear-gradient" x1="2850.57" y1="8.31" x2="2850.57" y2="37.54" gradientTransform="translate(-2833.31)" gradientUnits="userSpaceOnUse"><stop offset="0" stop-color="#207aaf"/><stop offset="0.32" stop-color="#4997b4"/><stop offset="0.78" stop-color="#80bfba"/><stop offset="1" stop-color="#96cebd"/></linearGradient><linearGradient id="linear-gradient-2" x1="2843.2" y1="15.56" x2="2861.9" y2="15.56" gradientTransform="translate(-2833.31)" gradientUnits="userSpaceOnUse"><stop offset="0" stop-color="#59baa9"/><stop offset="1" stop-color="#e5e799"/></linearGradient><linearGradient id="linear-gradient-3" x1="2852.55" y1="22.92" x2="2852.55" y2="37.64" gradientTransform="translate(-2833.31)" gradientUnits="userSpaceOnUse"><stop offset="0" stop-color="#e33332"/><stop offset="0.16" stop-color="#d43542"/><stop offset="0.72" stop-color="#a13e79"/><stop offset="1" stop-color="#8d418f"/></linearGradient><linearGradient id="linear-gradient-4" x1="2863.32" y1="19" x2="2863.32" y2="26.85" gradientTransform="translate(-2833.31)" gradientUnits="userSpaceOnUse"><stop offset="0" stop-color="#ef8679"/><stop offset="0.63" stop-color="#f7b374"/><stop offset="1" stop-color="#fbc972"/></linearGradient></defs><g id="Layer_2" data-name="Layer 2"><g id="Layer_1-2" data-name="Layer 1"><rect class="cls-2" width="131.94" height="44.02" rx="5.83"/><g id="PLAY"><g class="cls-3"><polygon class="cls-4" points="9.9 8.31 9.9 22.92 9.9 37.53 24.63 22.92 9.9 8.31"/><polygon class="cls-5" points="28.59 19 22.64 15.56 9.9 8.2 9.9 8.31 24.63 22.92 28.59 19"/><polygon class="cls-6" points="9.9 37.53 9.9 37.64 22.64 30.28 28.59 26.85 24.63 22.92 9.9 37.53"/><polygon class="cls-7" points="28.59 19 24.63 22.92 28.59 26.85 35.39 22.92 28.59 19"/></g></g><path class="cls-8" d="M102.68,28.64a3.79,3.79,0,0,1-1.52-.31,3,3,0,0,1-1.15-.94h-.09A11.61,11.61,0,0,1,100,28.8v3.5H98.72V20h1l.18,1.16H100a3,3,0,0,1,1.16-1,3.45,3.45,0,0,1,1.51-.31A3.13,3.13,0,0,1,105.29,21a5.1,5.1,0,0,1,.92,3.24,5,5,0,0,1-.94,3.26A3.14,3.14,0,0,1,102.68,28.64Zm-.19-7.72a2.27,2.27,0,0,0-1.88.72,3.71,3.71,0,0,0-.6,2.3v.28a4.26,4.26,0,0,0,.6,2.57,2.29,2.29,0,0,0,1.91.77,2,2,0,0,0,1.73-.89,4.23,4.23,0,0,0,.62-2.46,4,4,0,0,0-.62-2.44A2,2,0,0,0,102.49,20.92Z"/><path class="cls-8" d="M109.19,28.48H107.9V16.41h1.29Z"/><path class="cls-8" d="M116.59,28.48l-.26-1.21h-.06A3.51,3.51,0,0,1,115,28.35a3.79,3.79,0,0,1-1.57.29,2.83,2.83,0,0,1-2-.66,2.39,2.39,0,0,1-.71-1.85q0-2.58,4.11-2.7l1.45,0v-.53a2.2,2.2,0,0,0-.43-1.48,1.78,1.78,0,0,0-1.38-.48,5.51,5.51,0,0,0-2.4.66l-.4-1a5.57,5.57,0,0,1,1.38-.53,6,6,0,0,1,1.5-.2,3.24,3.24,0,0,1,2.25.68,2.81,2.81,0,0,1,.73,2.16v5.8Zm-2.91-.91a2.62,2.62,0,0,0,1.89-.66,2.42,2.42,0,0,0,.69-1.84V24.3l-1.29.05a4.81,4.81,0,0,0-2.22.48,1.44,1.44,0,0,0-.67,1.32,1.33,1.33,0,0,0,.42,1.06A1.75,1.75,0,0,0,113.68,27.57Z"/><path class="cls-8" d="M118.29,20h1.38l1.86,4.85a18.21,18.21,0,0,1,.76,2.39h.07q.09-.39.42-1.35t2.1-5.89h1.38l-3.65,9.68a4.8,4.8,0,0,1-1.27,2,2.68,2.68,0,0,1-1.78.6,5,5,0,0,1-1.16-.14v-1a4.54,4.54,0,0,0,.95.1,2,2,0,0,0,1.9-1.49l.47-1.21Z"/><path class="cls-8" d="M78.83,20.77a2.89,2.89,0,0,1-.23,4.92,1.3,1.3,0,0,0-.5.88,1,1,0,0,0,.47.76l.64.5a3.1,3.1,0,0,1,1.49,2.49c0,1.67-1.62,3.36-4.68,3.36-2.58,0-3.82-1.23-3.82-2.55A2.54,2.54,0,0,1,73.57,29a7.56,7.56,0,0,1,3.4-.82,1.87,1.87,0,0,1-.54-1.21,1.56,1.56,0,0,1,.18-.69l-.57,0a2.81,2.81,0,0,1-3-2.79,3.18,3.18,0,0,1,1.14-2.38,4.81,4.81,0,0,1,3.18-1h3.66l-1.14.64Zm-1.26,7.89h-.41a7,7,0,0,0-1.87.28,2,2,0,0,0-1.52,1.83c0,1.26,1.22,2.17,3.12,2.17,1.71,0,2.62-.82,2.62-1.92C79.51,30.1,78.92,29.62,77.57,28.66Zm.52-3.37a1.84,1.84,0,0,0,.44-1.3c0-1.28-.77-3.27-2.24-3.27A1.7,1.7,0,0,0,75,21.3a2.09,2.09,0,0,0-.39,1.32c0,1.19.7,3.16,2.23,3.16A1.86,1.86,0,0,0,78.09,25.29Z"/><path class="cls-8" d="M67.64,28.38a4.19,4.19,0,0,1-4.33-4.19,4.39,4.39,0,0,1,4.6-4.31,4.15,4.15,0,0,1,4.24,4.19A4.34,4.34,0,0,1,67.64,28.38Zm2.22-1.44a3.26,3.26,0,0,0,.53-2c0-1.56-.74-4.54-3-4.54a2.47,2.47,0,0,0-1.59.6A2.7,2.7,0,0,0,65,23.2c0,1.75.87,4.65,3,4.65A2.27,2.27,0,0,0,69.86,26.94Z"/><path class="cls-8" d="M58,28.38a4.19,4.19,0,0,1-4.33-4.19,4.39,4.39,0,0,1,4.6-4.31,4.15,4.15,0,0,1,4.24,4.19A4.34,4.34,0,0,1,58,28.38Zm2.22-1.44a3.26,3.26,0,0,0,.53-2c0-1.56-.74-4.54-3-4.54a2.47,2.47,0,0,0-1.59.6,2.66,2.66,0,0,0-.82,2.17c0,1.75.87,4.65,3,4.65A2.27,2.27,0,0,0,60.24,26.94Z"/><path class="cls-8" d="M52.33,28.1l-2.55.59a18.92,18.92,0,0,1-2.94.3c-4.93,0-6.8-3.62-6.8-6.46,0-3.46,2.66-6.67,7.21-6.67a10.41,10.41,0,0,1,2.73.37,6.91,6.91,0,0,1,2.35,1.11l-1.48,1.41-.62.14.44-.71a5.08,5.08,0,0,0-3.82-1.68,4.93,4.93,0,0,0-4.94,5.27,6.31,6.31,0,0,0,6.32,6.51,5.18,5.18,0,0,0,2.26-.45V25l-2.69.14,1.43-.76H53l-.46.44a.39.39,0,0,0-.18.29c0,.16,0,.68,0,.85Z"/><path class="cls-8" d="M84.47,27.59c-.59-.06-.71-.16-.71-.86V16.63s0-.08,0-.11c.07-.63.25-.74.8-1.06H82l-1.34.65h1.37v11c0,.36-.08.41-.49.95h3.16l.66-.39C85.08,27.64,84.78,27.62,84.47,27.59Z"/><path class="cls-8" d="M91.73,27.75c-.19.11-.39.23-.58.32a4.08,4.08,0,0,1-1.72.34,3.83,3.83,0,0,1-2.36-.69A4.58,4.58,0,0,1,85.27,24a4,4,0,0,1,4-4.1,3.43,3.43,0,0,1,1.83.5,2.91,2.91,0,0,1,1.24,1.75l-4.16,1.69-1.37.1c.44,2.25,2,3.56,3.65,3.56a4.58,4.58,0,0,0,2.16-.61Zm-1.66-5.28c.33-.12.51-.23.51-.48a1.75,1.75,0,0,0-1.75-1.52,2.18,2.18,0,0,0-2,2.46c0,.3,0,.62,0,.94Z"/><path class="cls-8" d="M93.44,20v1.17H93.3V20h-.38v-.12h.91V20Z"/><path class="cls-8" d="M95,21.17V20h0l-.36,1.18h-.11L94.2,20h0v1.18h-.13V19.88h.22l.33,1.05h0l.32-1.05h.23v1.29Z"/><path class="cls-9" d="M43.58,12.39H42.7a5.89,5.89,0,0,0-.26-1H41.16a5.49,5.49,0,0,0-.26,1h-.83a16.06,16.06,0,0,1,.65-1.78,13.64,13.64,0,0,0,.64-1.83h1A16.32,16.32,0,0,0,43,10.59,15.16,15.16,0,0,1,43.58,12.39ZM42.3,10.82a16.18,16.18,0,0,1-.47-1.55h0a14.5,14.5,0,0,1-.49,1.55Z"/><path class="cls-9" d="M47.15,12.39h-.68a6.23,6.23,0,0,0-.76-1.2,6.71,6.71,0,0,1-.91-1.57h0c0,.4.06.77.06,1.1s0,1,0,1.67h-.68c0-.58,0-1.21,0-1.89s0-1.25,0-1.72H45A5.09,5.09,0,0,0,45.69,10a7.76,7.76,0,0,1,.84,1.48h0a9.29,9.29,0,0,1-.07-1.11c0-.5,0-1,0-1.54h.69c0,.46,0,1,0,1.72S47.13,11.82,47.15,12.39Z"/><path class="cls-9" d="M51.17,10.46a2.07,2.07,0,0,1-.5,1.37,1.78,1.78,0,0,1-1.42.59l-1.13,0c0-.56,0-1.19,0-1.89s0-1.25,0-1.72h1.15a1.87,1.87,0,0,1,1.45.5A1.72,1.72,0,0,1,51.17,10.46Zm-.76.12a1.31,1.31,0,0,0-.31-.9,1.16,1.16,0,0,0-.94-.36,2.19,2.19,0,0,0-.33,0c0,.37,0,.76,0,1.16s0,.88,0,1.31a1.47,1.47,0,0,0,.36,0,1.07,1.07,0,0,0,.88-.37A1.44,1.44,0,0,0,50.41,10.58Z"/><path class="cls-9" d="M54.87,12.39h-.82a5.17,5.17,0,0,0-.49-1.22.65.65,0,0,0-.55-.23H52.7c0,.47,0,1,0,1.44H52c0-.56,0-1.19,0-1.89s0-1.25,0-1.72h1.32c.85,0,1.27.29,1.27.87a1,1,0,0,1-.72,1v0a.92.92,0,0,1,.49.44A8.94,8.94,0,0,1,54.87,12.39Zm-1-2.55c0-.37-.24-.56-.71-.56a2.92,2.92,0,0,0-.46,0c0,.29,0,.66,0,1.12H53C53.54,10.45,53.84,10.24,53.84,9.84Z"/><path class="cls-9" d="M58.85,10.52a2,2,0,0,1-.52,1.41,1.71,1.71,0,0,1-1.29.56A1.65,1.65,0,0,1,55.81,12a1.8,1.8,0,0,1-.49-1.31,2,2,0,0,1,.52-1.41,1.71,1.71,0,0,1,1.29-.56,1.63,1.63,0,0,1,1.22.52A1.8,1.8,0,0,1,58.85,10.52Zm-.77.08a1.47,1.47,0,0,0-.29-.94.93.93,0,0,0-.74-.36.82.82,0,0,0-.68.36,1.45,1.45,0,0,0-.29.92,1.4,1.4,0,0,0,.3.93.92.92,0,0,0,.73.37.87.87,0,0,0,.69-.37A1.43,1.43,0,0,0,58.08,10.6Z"/><path class="cls-9" d="M60.41,12.39h-.78c0-.58,0-1.21,0-1.89s0-1.25,0-1.72h.78c0,.46,0,1,0,1.72S60.39,11.82,60.41,12.39Z"/><path class="cls-9" d="M64.43,10.46a2.07,2.07,0,0,1-.5,1.37,1.78,1.78,0,0,1-1.42.59l-1.13,0c0-.56,0-1.19,0-1.89s0-1.25,0-1.72h1.15a1.87,1.87,0,0,1,1.45.5A1.72,1.72,0,0,1,64.43,10.46Zm-.76.12a1.31,1.31,0,0,0-.31-.9,1.16,1.16,0,0,0-.94-.36,2.19,2.19,0,0,0-.33,0c0,.37,0,.76,0,1.16s0,.88,0,1.31a1.47,1.47,0,0,0,.36,0,1.08,1.08,0,0,0,.89-.37A1.44,1.44,0,0,0,63.67,10.58Z"/><path class="cls-9" d="M69.76,12.39h-.89a5.46,5.46,0,0,0-.25-1H67.34a4.76,4.76,0,0,0-.26,1h-.84c0-.08.22-.67.65-1.78a14.71,14.71,0,0,0,.65-1.83h1a15,15,0,0,0,.58,1.81A16.6,16.6,0,0,1,69.76,12.39Zm-1.28-1.57A14.85,14.85,0,0,1,68,9.27h0a14.5,14.5,0,0,1-.49,1.55Z"/><path class="cls-9" d="M73,9.72a1.08,1.08,0,0,1-.49,1,2.2,2.2,0,0,1-1.21.32h-.18q0,.53,0,1.38h-.78q0-.81,0-1.89c0-.67,0-1.24,0-1.72h1.38a1.6,1.6,0,0,1,.89.24A.81.81,0,0,1,73,9.72Zm-.71.15c0-.39-.27-.59-.79-.59a3.29,3.29,0,0,0-.42,0c0,.35,0,.75,0,1.19h.16C71.94,10.52,72.28,10.3,72.28,9.87Z"/><path class="cls-9" d="M76.31,9.72a1.08,1.08,0,0,1-.49,1,2.2,2.2,0,0,1-1.21.32h-.18q0,.53,0,1.38h-.78c0-.54,0-1.17,0-1.89s0-1.24,0-1.72h1.38A1.58,1.58,0,0,1,76,9,.81.81,0,0,1,76.31,9.72Zm-.71.15c0-.39-.26-.59-.79-.59a3,3,0,0,0-.41,0c0,.35,0,.75,0,1.19h.16C75.26,10.52,75.6,10.3,75.6,9.87Z"/><path class="cls-9" d="M81.75,10.52a2,2,0,0,1-.52,1.41,1.71,1.71,0,0,1-1.29.56A1.65,1.65,0,0,1,78.71,12a1.8,1.8,0,0,1-.49-1.31,2,2,0,0,1,.52-1.41A1.71,1.71,0,0,1,80,8.69a1.63,1.63,0,0,1,1.22.52A1.8,1.8,0,0,1,81.75,10.52ZM81,10.6a1.47,1.47,0,0,0-.29-.94A.93.93,0,0,0,80,9.3a.84.84,0,0,0-.68.36,1.45,1.45,0,0,0-.29.92,1.4,1.4,0,0,0,.3.93.92.92,0,0,0,.73.37.87.87,0,0,0,.69-.37A1.43,1.43,0,0,0,81,10.6Z"/><path class="cls-9" d="M85.5,12.39h-.68a6.9,6.9,0,0,0-.76-1.2,6.35,6.35,0,0,1-.91-1.57H83.1a8.9,8.9,0,0,1,.07,1.1c0,.45,0,1,0,1.67h-.68c0-.58,0-1.21,0-1.89s0-1.25,0-1.72h.82A5.09,5.09,0,0,0,84,10a7,7,0,0,1,.83,1.48h0a9.29,9.29,0,0,1-.07-1.11c0-.5,0-1,0-1.54h.69c0,.46,0,1,0,1.72S85.48,11.82,85.5,12.39Z"/></g></g></svg>