<svg xmlns="http://www.w3.org/2000/svg" viewBox="0 0 275 125.91"><defs><style>.cls-1,.cls-2{fill:#fff;}.cls-2{opacity:0.65;}</style></defs><g id="Layer_2" data-name="Layer 2"><g id="Layer_1-2" data-name="Layer 1"><path class="cls-1" d="M106.55,82.3h-3.73c-6.11,0-8.73-2.85-8.73-8.15,0-4.54,2.56-7.85,6.93-7.85a14.12,14.12,0,0,1,5.53,1Zm52.2,0h-12V61h-7.68V82.3H114v-20a37.54,37.54,0,0,0-12.22-2c-10.66,0-15.37,7-15.37,14.61,0,8.27,4.25,13.51,15.54,13.51h64.49v-41h-7.69Zm61.59,10.31a3.79,3.79,0,1,0,3.78,3.78A3.78,3.78,0,0,0,220.34,92.61ZM257.89,82.3h-9.37c1.16-8.2,6.34-16,12.63-16,4.07,0,6,2.86,6,7.57S265.17,82.3,257.89,82.3Zm4.83-22.06c-6.11,0-12.17,3.79-14.73,10.83h-.12a48.88,48.88,0,0,0,.7-8.61V61h-7.68V82.31h-12V61h-7.69V82.31h-22.7c-.7-13-7.39-19.56-19.39-22.71L177.26,66c9.2,2.32,13.39,7.68,13.74,16.29H173.77v6.06h83.42c13,0,17.81-6.52,17.81-14.91C275,65.25,270.81,60.24,262.72,60.24ZM229.65,92.61a3.79,3.79,0,0,0,0,7.57,3.79,3.79,0,1,0,0-7.57Zm-91.44,0a3.79,3.79,0,1,0,0,7.57,3.79,3.79,0,0,0,0-7.57ZM96.42,57a3.79,3.79,0,0,0,0-7.57,3.82,3.82,0,0,0-3.79,3.79A3.75,3.75,0,0,0,96.42,57Zm9.31,0A3.79,3.79,0,1,0,102,53.26,3.78,3.78,0,0,0,105.73,57Zm41.79,35.57a3.79,3.79,0,1,0,0,7.57,3.79,3.79,0,0,0,0-7.57Z"/><path class="cls-2" d="M152.29,120.41h-2.08c-2.89,0-3.83-1-3.83-3.19a6.43,6.43,0,0,1,.54-2.54l-2.19.36a8,8,0,0,0-.4,2.42c0,2.81,1.47,4.55,5.65,4.55h4.34v-7.23h-2Zm14.56,0h-1.17c-1.6,0-2.3-.71-2.3-2.16a1.85,1.85,0,0,1,1.83-2.07c1,0,1.65.64,1.65,2.18v2Zm2-2.29c0-2.16-1.08-3.54-3.48-3.54a3.67,3.67,0,0,0-4,3.74,2.51,2.51,0,0,0,.86,2.2,3.16,3.16,0,0,0-.86-.1h-2.54v-9.25h-2V122h12.05Zm-32,3.89h2V111.16h-2Zm69-1.6h-1.17c-1.6,0-2.31-.71-2.31-2.16a1.85,1.85,0,0,1,1.83-2.07c1,0,1.65.64,1.65,2.18v2Zm-1.5-5.83a3.67,3.67,0,0,0-4,3.74,2.49,2.49,0,0,0,.87,2.2,3.29,3.29,0,0,0-.87-.1h-2.5c0-.68.06-1.38.06-2a19,19,0,0,0-.49-4.26l-2,.27a19.25,19.25,0,0,1,.45,4.13c0,.47,0,1.23-.09,1.84h-.42c-1.41,0-1.83-.24-1.83-1.46v-3.86h-2v3.47c0,1.5-.44,2-1.24,2s-1.07-.6-1.07-2V115.7h-2v2.8c0,1.5-.38,1.9-1.38,1.9H184v-5.62h-2v5.62h-3.17v-9.24h-2v9.24h-2.8v-5.62h-2v7.4c0,1.66-.61,2.15-1.66,2.15a4.21,4.21,0,0,1-1.25-.19l-.15,1.62a5.57,5.57,0,0,0,1.29.15c3.13,0,3.8-1.87,3.8-3.84V122h11.92c1.13,0,1.74-.37,2-1.08a2,2,0,0,0,2.06,1.2,2.43,2.43,0,0,0,2.33-1.19c.45.85,1.26,1.07,2.88,1.07h12.67v-3.89C207.83,116,206.75,114.58,204.35,114.58Zm-79.13,5.83h-2.48c.31-2.17,1.68-4.22,3.34-4.22,1.07,0,1.58.76,1.58,2S127.14,120.41,125.22,120.41Zm7.1,0h-3.24a4,4,0,0,0,.66-2.34c0-2.17-1.11-3.49-3.25-3.49a4.16,4.16,0,0,0-3.89,2.86h0a14,14,0,0,0,.18-2.28v-.38h-2v5.63h-3.17v-5.63h-2v5.63h-2.44c-.19-3.43-2-5.17-5.13-6l-.49,1.69c2.43.62,3.54,2,3.63,4.31h-4.55V122h27.81V111.16h-2v9.25ZM223,116.07c2.45.57,3.68,2,3.75,4.34h-5.61v-9.25h-2V121c0,2.27-.8,3-1.94,3s-2.09-.61-2.09-3a10.58,10.58,0,0,1,.43-2.95l-2.11.38a11.36,11.36,0,0,0-.36,2.76c0,3.07,1.51,4.37,4,4.37A3.71,3.71,0,0,0,221,122h7.69v-1c0-3.34-1.35-5-3.41-5.94l3.75-2.26v-2L223,114.57v1.5Zm43.24,4.34h-1c-1.62,0-2.31-.76-2.31-2.16a1.85,1.85,0,0,1,1.83-2.07,3.76,3.76,0,0,1,1.46.27v4Zm5.14,0h-3.17v-5.29a9.9,9.9,0,0,0-3.23-.54,3.7,3.7,0,0,0-4.06,3.86c0,2.19,1.12,3.57,4.1,3.57h1.22v.23c0,1.45-1.06,2.05-2.66,2.05a13,13,0,0,1-2.4-.26l-.12,1.66a16.06,16.06,0,0,0,2.33.2c3.44,0,4.82-1.72,4.82-3.84v0h5.2v-7.22h-2v5.62Zm2.17-8.68a1,1,0,1,0,0,2,1,1,0,0,0,0-2Zm-18.66,8.68h-2.48c.31-2.17,1.68-4.22,3.34-4.22,1.07,0,1.58.76,1.58,2S256.76,120.41,254.84,120.41Zm1.27-5.83a4.17,4.17,0,0,0-3.89,2.86h0a13,13,0,0,0,.19-2.28v-.38h-2v5.63h-3.16v-5.63h-2v5.63H242v-9.24h-2V121c0,2.26-.8,3-1.94,3s-2.09-.62-2.09-3a10.71,10.71,0,0,1,.43-3l-2.11.39a11.29,11.29,0,0,0-.36,2.75c0,3.08,1.51,4.37,4,4.37A3.7,3.7,0,0,0,242,122h12.69c3.43,0,4.71-1.72,4.71-3.94S258.25,114.58,256.11,114.58Zm-11.19,8.55a1,1,0,0,0,0,2,1,1,0,0,0,0-2Zm-127.17,0a1,1,0,0,0,0,2,1,1,0,1,0,0-2Zm129.63,0a1,1,0,0,0,0,2,1,1,0,0,0,0-2Zm-65.67-9.4a1,1,0,0,0,0-2,1,1,0,0,0-1,1A1,1,0,0,0,181.71,113.73Zm-30.73,0a1,1,0,1,0-1-1A1,1,0,0,0,151,113.73Zm-2.46,0a1,1,0,0,0,0-2,1,1,0,0,0-1,1A1,1,0,0,0,148.52,113.73Zm24.38.11a1.06,1.06,0,0,0,0-2.12,1.06,1.06,0,0,0,0,2.12ZM92,113.73a1,1,0,1,0-1-1A1,1,0,0,0,92,113.73Zm179,0a1,1,0,1,0-1-1A1,1,0,0,0,271,113.73Zm-86.86,0a1,1,0,1,0-1-1A1,1,0,0,0,184.17,113.73Zm-87,9.4a1,1,0,1,0,1,1A1,1,0,0,0,97.14,123.13Zm2.46,0a1,1,0,0,0,0,2,1,1,0,1,0,0-2Zm-10-9.4a1,1,0,0,0,0-2,1,1,0,0,0-1,1A1,1,0,0,0,89.56,113.73Zm25.73,9.4a1,1,0,1,0,1,1A1,1,0,0,0,115.29,123.13Zm-23.05-2.72h-1c-1.61,0-2.3-.76-2.3-2.16a1.85,1.85,0,0,1,1.83-2.07,3.76,3.76,0,0,1,1.46.27v4Zm10.33,0H99.4v-5.63h-2v5.63H94.2v-5.29a9.9,9.9,0,0,0-3.23-.54,3.7,3.7,0,0,0-4.06,3.86C86.91,120.63,88,122,91,122H104.6V111.17h-2Z"/><path class="cls-1" d="M36.35,0A23.14,23.14,0,0,0,13.2,23.15V48.59l.67.12c1.06.18,2.25.33,3.64.45.62.06,1.32.11,2.2.17,1.52.09,3.17.16,4.92.24,10.7.48,24,1.07,33.09,7.3.62.43,1.21.87,1.77,1.34V23.15A23.14,23.14,0,0,0,36.35,0Z"/><path class="cls-1" d="M54.67,87.73v13.34a17.65,17.65,0,0,1-35.29,0V84.16l.93.34A77.66,77.66,0,0,0,54.67,87.73Zm7.2-8s3-18.5-15.85-22S8.6,57.05,0,47.49c0,0-.86,22.4,13,33.08v20.5a24.07,24.07,0,0,0,48.13,0V86.56S50.71,68.39,24.8,64.88C24.8,64.88,51.06,63.4,61.87,79.69Z"/></g></g></svg>