<svg xmlns="http://www.w3.org/2000/svg" viewBox="0 0 275 125.13"><defs><style>.cls-1{fill:#fff;}</style></defs><g id="Layer_2" data-name="Layer 2"><g id="Layer_1-2" data-name="Layer 1"><path class="cls-1" d="M91.69,115.39l-4.78-7.29H90.4l2.69,4.76L96,108.1h3.32l-4.78,7.29v5.43h-2.8Z"/><path class="cls-1" d="M97.89,116.45a4.57,4.57,0,0,1,.38-1.88,4.21,4.21,0,0,1,1-1.45,4.64,4.64,0,0,1,1.55-.93,5.6,5.6,0,0,1,1.89-.32,5.7,5.7,0,0,1,1.9.32,4.7,4.7,0,0,1,1.54.93,4.21,4.21,0,0,1,1,1.45,4.87,4.87,0,0,1,0,3.77,4.27,4.27,0,0,1-1,1.44,4.54,4.54,0,0,1-1.54.93,5.46,5.46,0,0,1-1.9.32,5.36,5.36,0,0,1-1.89-.32,4.49,4.49,0,0,1-1.55-.93,4.27,4.27,0,0,1-1-1.44A4.59,4.59,0,0,1,97.89,116.45Zm2.69,0a2.25,2.25,0,0,0,.57,1.6,2.38,2.38,0,0,0,3.18,0,2.53,2.53,0,0,0,0-3.2,2.38,2.38,0,0,0-3.18,0A2.25,2.25,0,0,0,100.58,116.45Z"/><path class="cls-1" d="M117.58,120.82H115v-1.19h0a3.27,3.27,0,0,1-.37.51,2.47,2.47,0,0,1-.55.44,3.05,3.05,0,0,1-.73.33,3.26,3.26,0,0,1-.9.12,3.8,3.8,0,0,1-1.67-.31,2.37,2.37,0,0,1-1-.87,3.35,3.35,0,0,1-.47-1.31,10.53,10.53,0,0,1-.12-1.64v-4.81h2.7v4.27c0,.25,0,.51,0,.78a2.57,2.57,0,0,0,.17.75,1.28,1.28,0,0,0,.41.56,1.29,1.29,0,0,0,.8.21,1.58,1.58,0,0,0,.84-.19,1.27,1.27,0,0,0,.5-.5,2,2,0,0,0,.22-.71,5.49,5.49,0,0,0,.06-.83v-4.34h2.69Z"/><path class="cls-1" d="M119.48,112.09h2.7v1.4h0a3.18,3.18,0,0,1,1-1.21,2.59,2.59,0,0,1,1.49-.41l.47,0a2.76,2.76,0,0,1,.43.07v2.46a3.9,3.9,0,0,0-.57-.13,3.58,3.58,0,0,0-.58-.05,2.74,2.74,0,0,0-1.22.22,1.56,1.56,0,0,0-.69.6,2.23,2.23,0,0,0-.32.93,8.51,8.51,0,0,0-.07,1.18v3.65h-2.7Z"/><path class="cls-1" d="M131.77,114.46a7,7,0,0,1,.52-2.77,6.09,6.09,0,0,1,1.42-2.11,6.29,6.29,0,0,1,2.18-1.34,8.28,8.28,0,0,1,5.5,0,6.34,6.34,0,0,1,2.17,1.34,6.11,6.11,0,0,1,1.43,2.11,7.78,7.78,0,0,1,0,5.54,6.11,6.11,0,0,1-1.43,2.11,6.32,6.32,0,0,1-2.17,1.33,8.28,8.28,0,0,1-5.5,0,6.27,6.27,0,0,1-2.18-1.33,6.09,6.09,0,0,1-1.42-2.11A7,7,0,0,1,131.77,114.46Zm2.91,0a4.74,4.74,0,0,0,.28,1.64,3.84,3.84,0,0,0,.8,1.3,3.75,3.75,0,0,0,1.25.85,4.26,4.26,0,0,0,1.63.3,4.18,4.18,0,0,0,1.62-.3,3.65,3.65,0,0,0,1.25-.85,3.84,3.84,0,0,0,.8-1.3,4.52,4.52,0,0,0,.28-1.64,4.63,4.63,0,0,0-.28-1.64,3.84,3.84,0,0,0-.8-1.3,3.65,3.65,0,0,0-1.25-.85,4,4,0,0,0-1.62-.31,4.08,4.08,0,0,0-1.63.31,3.75,3.75,0,0,0-1.25.85,3.84,3.84,0,0,0-.8,1.3A4.87,4.87,0,0,0,134.68,114.46Z"/><path class="cls-1" d="M147.06,112.09h2.59v1.18h0a2.17,2.17,0,0,1,.35-.5,2.76,2.76,0,0,1,.56-.45,3.12,3.12,0,0,1,.74-.32,2.84,2.84,0,0,1,.9-.13,3.7,3.7,0,0,1,1.65.32,2.44,2.44,0,0,1,1,.87,3.52,3.52,0,0,1,.47,1.31,9.28,9.28,0,0,1,.13,1.63v4.82h-2.7v-4.28c0-.25,0-.51,0-.78a2.43,2.43,0,0,0-.16-.74,1.24,1.24,0,0,0-.42-.56,1.23,1.23,0,0,0-.8-.22,1.63,1.63,0,0,0-.84.19,1.24,1.24,0,0,0-.49.5,2,2,0,0,0-.23.71,5.61,5.61,0,0,0-.05.83v4.35h-2.7Z"/><path class="cls-1" d="M157.41,107.24h2.7v13.58h-2.7Z"/><path class="cls-1" d="M161.87,109.34a1.55,1.55,0,0,1,1.56-1.57,1.57,1.57,0,0,1,1.56,1.57,1.57,1.57,0,0,1-1.56,1.56,1.55,1.55,0,0,1-1.56-1.56Zm.21,2.75h2.7v8.73h-2.7Z"/><path class="cls-1" d="M166.72,112.09h2.58v1.18h0a2,2,0,0,1,.36-.5,2.51,2.51,0,0,1,.56-.45A3,3,0,0,1,171,112a2.92,2.92,0,0,1,.9-.13,3.67,3.67,0,0,1,1.65.32,2.37,2.37,0,0,1,1,.87,3.36,3.36,0,0,1,.48,1.31,10.36,10.36,0,0,1,.13,1.63v4.82h-2.7v-4.28q0-.37,0-.78a2.17,2.17,0,0,0-.16-.74,1.3,1.3,0,0,0-.41-.56,1.25,1.25,0,0,0-.8-.22,1.65,1.65,0,0,0-.85.19,1.31,1.31,0,0,0-.49.5,2,2,0,0,0-.22.71,5.59,5.59,0,0,0-.06.83v4.35h-2.69Z"/><path class="cls-1" d="M185.29,119.31a4.17,4.17,0,0,1-1.63,1.27,4.89,4.89,0,0,1-2,.45,5.36,5.36,0,0,1-1.89-.32,4.49,4.49,0,0,1-1.55-.93,4.27,4.27,0,0,1-1-1.44,4.87,4.87,0,0,1,0-3.77,4.21,4.21,0,0,1,1-1.45,4.64,4.64,0,0,1,1.55-.93,5.6,5.6,0,0,1,1.89-.32,4.44,4.44,0,0,1,1.7.32,3.56,3.56,0,0,1,1.29.93,4.19,4.19,0,0,1,.82,1.45,5.84,5.84,0,0,1,.29,1.88v.85h-6.26a2.23,2.23,0,0,0,.7,1.23,2.21,2.21,0,0,0,2.46.16,3.19,3.19,0,0,0,.8-.76ZM183,115.46a1.61,1.61,0,0,0-1.65-1.65,2.09,2.09,0,0,0-1.38.51,1.71,1.71,0,0,0-.37.52,2,2,0,0,0-.16.62Z"/><path class="cls-1" d="M193,108.1h4.73a9.24,9.24,0,0,1,1.86.18,4.16,4.16,0,0,1,1.54.62,3.13,3.13,0,0,1,1,1.18,4.06,4.06,0,0,1,.39,1.88,4.33,4.33,0,0,1-.36,1.87,3.08,3.08,0,0,1-1,1.2,3.87,3.87,0,0,1-1.49.64,8.46,8.46,0,0,1-1.87.19h-2v5H193Zm2.8,5.39h1.87a4.3,4.3,0,0,0,.73-.07,1.93,1.93,0,0,0,.63-.25,1.41,1.41,0,0,0,.45-.46,1.54,1.54,0,0,0,.17-.75,1.27,1.27,0,0,0-.23-.78,1.51,1.51,0,0,0-.57-.46,2.71,2.71,0,0,0-.78-.21c-.29,0-.57,0-.83,0H195.8Z"/><path class="cls-1" d="M206.67,107.24v6h0a1.66,1.66,0,0,1,.3-.5,2.34,2.34,0,0,1,.53-.45,2.73,2.73,0,0,1,.71-.32,2.92,2.92,0,0,1,.9-.13,3.64,3.64,0,0,1,1.65.32,2.37,2.37,0,0,1,1,.87,3.36,3.36,0,0,1,.48,1.31,10.36,10.36,0,0,1,.13,1.63v4.82h-2.7v-4.28q0-.37,0-.78a2.17,2.17,0,0,0-.16-.74,1.3,1.3,0,0,0-.41-.56,1.25,1.25,0,0,0-.8-.22,1.58,1.58,0,0,0-.84.19,1.27,1.27,0,0,0-.5.5,2,2,0,0,0-.22.71,5.59,5.59,0,0,0-.06.83v4.35H204V107.24Z"/><path class="cls-1" d="M219.77,119.72h0a2.54,2.54,0,0,1-1.19,1,4.18,4.18,0,0,1-1.57.3,3.87,3.87,0,0,1-1.18-.17,2.87,2.87,0,0,1-1-.51,2.65,2.65,0,0,1-.68-.84,2.58,2.58,0,0,1-.25-1.17,2.66,2.66,0,0,1,.28-1.28,2.58,2.58,0,0,1,.75-.86,3.81,3.81,0,0,1,1.09-.53,8.68,8.68,0,0,1,1.27-.28c.43-.06.87-.09,1.31-.11h1.21a1.4,1.4,0,0,0-.51-1.14,1.81,1.81,0,0,0-1.21-.43,2.74,2.74,0,0,0-1.22.28,3.4,3.4,0,0,0-1,.77l-1.43-1.48a5,5,0,0,1,1.76-1,6.35,6.35,0,0,1,2.08-.35,5.4,5.4,0,0,1,2,.3,2.76,2.76,0,0,1,1.22.87,3.27,3.27,0,0,1,.64,1.41,9.25,9.25,0,0,1,.18,1.93v4.44h-2.48Zm-.66-2.73-.77,0a4.26,4.26,0,0,0-.88.15,1.91,1.91,0,0,0-.72.38.89.89,0,0,0-.29.7.77.77,0,0,0,.41.72,1.79,1.79,0,0,0,.86.23,2.47,2.47,0,0,0,.77-.11,2.28,2.28,0,0,0,.65-.3,1.47,1.47,0,0,0,.46-.5,1.53,1.53,0,0,0,.17-.72V117Z"/><path class="cls-1" d="M223.94,112.09h2.69v1.4h0a3.37,3.37,0,0,1,1-1.21,2.61,2.61,0,0,1,1.49-.41l.47,0a2.58,2.58,0,0,1,.43.07v2.46a4.09,4.09,0,0,0-.56-.13,3.7,3.7,0,0,0-.59-.05,2.77,2.77,0,0,0-1.22.22,1.56,1.56,0,0,0-.69.6,2.23,2.23,0,0,0-.31.93,8.42,8.42,0,0,0-.08,1.18v3.65h-2.69Z"/><path class="cls-1" d="M231.57,112.09h2.59v1.18h0a2,2,0,0,1,.36-.5,2.45,2.45,0,0,1,.55-.45,3.12,3.12,0,0,1,.74-.32,2.84,2.84,0,0,1,.9-.13,3.4,3.4,0,0,1,1.62.38,2.34,2.34,0,0,1,1.07,1.18,2.93,2.93,0,0,1,1.13-1.2,3.43,3.43,0,0,1,1.64-.36,3.28,3.28,0,0,1,1.48.3,2.28,2.28,0,0,1,.95.81,3.43,3.43,0,0,1,.51,1.2,7,7,0,0,1,.15,1.48v5.16h-2.7v-5.09a2,2,0,0,0-.26-1,1,1,0,0,0-.92-.44,1.67,1.67,0,0,0-.78.16,1.31,1.31,0,0,0-.51.42,2,2,0,0,0-.27.63,3.67,3.67,0,0,0-.08.75v4.62h-2.69V116.2c0-.16,0-.35,0-.57A2.27,2.27,0,0,0,237,115a1.33,1.33,0,0,0-.35-.52,1,1,0,0,0-.71-.22,1.65,1.65,0,0,0-.85.19,1.31,1.31,0,0,0-.49.5,2,2,0,0,0-.23.71,7.4,7.4,0,0,0,0,.83v4.35h-2.7Z"/><path class="cls-1" d="M252.68,119.72h0a2.56,2.56,0,0,1-1.2,1,4.14,4.14,0,0,1-1.57.3,3.87,3.87,0,0,1-1.18-.17,2.91,2.91,0,0,1-1-.51,2.55,2.55,0,0,1-.69-.84,2.72,2.72,0,0,1-.25-1.17,2.78,2.78,0,0,1,.28-1.28,2.61,2.61,0,0,1,.76-.86,3.75,3.75,0,0,1,1.08-.53,8.68,8.68,0,0,1,1.27-.28c.44-.06.87-.09,1.31-.11h1.21a1.4,1.4,0,0,0-.51-1.14,1.79,1.79,0,0,0-1.21-.43,2.69,2.69,0,0,0-1.21.28,3.28,3.28,0,0,0-1,.77l-1.44-1.48a5,5,0,0,1,1.76-1,6.4,6.4,0,0,1,2.08-.35,5.33,5.33,0,0,1,2,.3,2.84,2.84,0,0,1,1.23.87,3.38,3.38,0,0,1,.63,1.41,9.25,9.25,0,0,1,.18,1.93v4.44h-2.48ZM252,117l-.76,0a4.15,4.15,0,0,0-.88.15,1.77,1.77,0,0,0-.72.38.87.87,0,0,0-.3.7.79.79,0,0,0,.41.72,1.83,1.83,0,0,0,.87.23,2.45,2.45,0,0,0,.76-.11,2.34,2.34,0,0,0,.66-.3,1.44,1.44,0,0,0,.45-.5,1.42,1.42,0,0,0,.17-.72V117Z"/><path class="cls-1" d="M262.76,114.91a1.53,1.53,0,0,0-.55-.48,1.61,1.61,0,0,0-.78-.19,2.09,2.09,0,0,0-1.59.61,2.57,2.57,0,0,0,0,3.2,2.06,2.06,0,0,0,1.59.61,1.42,1.42,0,0,0,.78-.2,2.24,2.24,0,0,0,.55-.46l1.78,1.87a3.39,3.39,0,0,1-1.48.9,5.5,5.5,0,0,1-3.52-.06,4.49,4.49,0,0,1-1.55-.93,4.41,4.41,0,0,1-1-1.44,4.87,4.87,0,0,1,0-3.77,4.35,4.35,0,0,1,1-1.45,4.64,4.64,0,0,1,1.55-.93,5.6,5.6,0,0,1,1.89-.32,5.7,5.7,0,0,1,1.63.26,3.41,3.41,0,0,1,1.48.91Z"/><path class="cls-1" d="M270.54,122.24c-.18.46-.35.88-.52,1.24a2.87,2.87,0,0,1-.64.9,2.3,2.3,0,0,1-1,.56,5.09,5.09,0,0,1-1.56.19,6.5,6.5,0,0,1-2-.32l.36-2.21a3.07,3.07,0,0,0,1.26.27,2.47,2.47,0,0,0,.73-.1,1.29,1.29,0,0,0,.48-.29A1.69,1.69,0,0,0,268,122a6.61,6.61,0,0,0,.27-.63l.2-.5-3.83-8.8h2.91l2.25,5.76h0l1.92-5.76h2.76Z"/><path class="cls-1" d="M36.35,0A23.14,23.14,0,0,0,13.2,23.15V48.59l.67.12c1.06.18,2.25.33,3.64.45.62.06,1.32.11,2.2.17,1.52.09,3.17.16,4.92.24,10.7.48,24,1.07,33.09,7.3.62.43,1.21.87,1.77,1.34V23.15A23.14,23.14,0,0,0,36.35,0Z"/><path class="cls-1" d="M54.67,87.73v13.34a17.65,17.65,0,0,1-35.29,0V84.16l.93.34A77.66,77.66,0,0,0,54.67,87.73Zm7.2-8s3-18.5-15.85-22S8.6,57.05,0,47.49c0,0-.86,22.4,13,33.08v20.5a24.07,24.07,0,0,0,48.13,0V86.56S50.71,68.39,24.8,64.88C24.8,64.88,51.06,63.4,61.87,79.69Z"/><path class="cls-1" d="M104.25,65.73A5,5,0,0,0,102,64.16a8.17,8.17,0,0,0-2.72-.51,7,7,0,0,0-1.55.18,6.06,6.06,0,0,0-1.51.55,3.29,3.29,0,0,0-1.15,1,2.76,2.76,0,0,0,.62,3.67,10,10,0,0,0,2.68,1.29c1.08.35,2.23.71,3.47,1.06a14.61,14.61,0,0,1,3.48,1.51A8.24,8.24,0,0,1,108,75.52,7.93,7.93,0,0,1,109,79.9a10.21,10.21,0,0,1-1,4.56,9.17,9.17,0,0,1-2.64,3.23,11.3,11.3,0,0,1-3.85,1.91,17,17,0,0,1-4.63.62,16.76,16.76,0,0,1-5.66-.93,14.28,14.28,0,0,1-4.87-3l4.91-5.4A7.24,7.24,0,0,0,94,83.07a7.73,7.73,0,0,0,3.34.77,7.81,7.81,0,0,0,1.71-.2,5.44,5.44,0,0,0,1.55-.6,3.34,3.34,0,0,0,1.1-1,2.57,2.57,0,0,0,.42-1.47A2.65,2.65,0,0,0,101,78.33a10,10,0,0,0-2.72-1.4c-1.1-.38-2.28-.76-3.55-1.15a15.64,15.64,0,0,1-3.54-1.55,8.53,8.53,0,0,1-2.72-2.56,7.4,7.4,0,0,1-1.08-4.21,9.2,9.2,0,0,1,3.65-7.61,11.42,11.42,0,0,1,3.83-1.93,15.54,15.54,0,0,1,4.47-.64,17.59,17.59,0,0,1,5.13.75A11.81,11.81,0,0,1,109,60.55Z"/><path class="cls-1" d="M114.43,58.08h21.29v6.37H121.34v5.84h13.59v6.38H121.34V83h15.18v6.38H114.43Z"/><path class="cls-1" d="M142.06,58.08h10.35a29.55,29.55,0,0,1,7.15.84,16.22,16.22,0,0,1,5.91,2.72,13.22,13.22,0,0,1,4,4.89A16.4,16.4,0,0,1,171,73.84a15,15,0,0,1-1.43,6.7,14.39,14.39,0,0,1-3.88,4.87,17,17,0,0,1-5.62,3,21.82,21.82,0,0,1-6.69,1H142.06ZM149,83h3.59a19.65,19.65,0,0,0,4.45-.48,9.61,9.61,0,0,0,3.56-1.62,7.82,7.82,0,0,0,2.37-3,10.66,10.66,0,0,0,.86-4.5,8.8,8.8,0,0,0-.86-4,8.11,8.11,0,0,0-2.32-2.82A10.38,10.38,0,0,0,157.17,65a15.16,15.16,0,0,0-4.14-.55H149Z"/><path class="cls-1" d="M186,58.08h5.71l13.64,31.34h-7.79l-2.7-6.64H182.65L180,89.42h-7.61Zm2.66,9.12-3.81,9.73h7.66Z"/><path class="cls-1" d="M208.73,58.08h6.9V83h12.8v6.38h-19.7Z"/><path class="cls-1" d="M232.15,58.08h6.9V89.42h-6.9Z"/><path class="cls-1" d="M255.65,58.08h5.72L275,89.42h-7.79l-2.7-6.64H252.33l-2.61,6.64h-7.61Zm2.66,9.12-3.81,9.73h7.66Z"/></g></g></svg>